<svg width="75" height="75" viewBox="0 0 75 75" fill="none" xmlns="http://www.w3.org/2000/svg">
<mask id="path-1-outside-1_163_200" maskUnits="userSpaceOnUse" x="0" y="0" width="75" height="75" fill="black">
<rect fill="white" width="75" height="75"/>
<path d="M19.381 0.85714H25.4762V6.95238H19.381V0.85714ZM25.4762 0.85714H31.5714V6.95238H25.4762V0.85714ZM31.5714 0.85714H37.6667V6.95238H31.5714V0.85714ZM37.6667 0.85714H43.7619V6.95238H37.6667V0.85714ZM43.7619 0.85714H49.8571V6.95238H43.7619V0.85714ZM13.2857 6.95238H19.381V13.0476H13.2857V6.95238ZM13.2857 13.0476H19.381V19.1429H13.2857V13.0476ZM19.381 13.0476H25.4762V19.1429H19.381V13.0476ZM19.381 19.1429H25.4762V25.2381H19.381V19.1429ZM25.4762 19.1429H31.5714V25.2381H25.4762V19.1429ZM31.5714 19.1429H37.6667V25.2381H31.5714V19.1429ZM31.5714 25.2381H37.6667V31.3333H31.5714V25.2381ZM25.4762 25.2381H31.5714V31.3333H25.4762V25.2381ZM7.19048 19.1429H13.2857V25.2381H7.19048V19.1429ZM7.19048 25.2381H13.2857V31.3333H7.19048V25.2381ZM13.2857 25.2381H19.381V31.3333H13.2857V25.2381ZM13.2857 31.3333H19.381V37.4286H13.2857V31.3333ZM19.381 31.3333H25.4762V37.4286H19.381V31.3333ZM19.381 37.4286H25.4762V43.5238H19.381V37.4286ZM25.4762 37.4286H31.5714V43.5238H25.4762V37.4286ZM49.8571 0.85714H55.9524V6.95238H49.8571V0.85714ZM43.7619 6.95238H49.8571V13.0476H43.7619V6.95238ZM49.8571 6.95238H55.9524V13.0476H49.8571V6.95238ZM55.9524 6.95238H62.0476V13.0476H55.9524V6.95238ZM62.0476 6.95238H68.1429V13.0476H62.0476V6.95238ZM55.9524 13.0476H62.0476V19.1429H55.9524V13.0476ZM68.1429 0.85714H74.2381V6.95238H68.1429V0.85714ZM37.6667 25.2381H43.7619V31.3333H37.6667V25.2381ZM43.7619 25.2381H49.8571V31.3333H43.7619V25.2381ZM49.8571 25.2381H55.9524V31.3333H49.8571V25.2381ZM7.19048 61.8095H13.2857V67.9048H7.19048V61.8095ZM13.2857 61.8095H19.381V67.9048H13.2857V61.8095ZM19.381 61.8095H25.4762V67.9048H19.381V61.8095ZM25.4762 61.8095H31.5714V67.9048H25.4762V61.8095ZM31.5714 61.8095H37.6667V67.9048H31.5714V61.8095ZM37.6667 61.8095H43.7619V67.9048H37.6667V61.8095ZM43.7619 61.8095H49.8571V67.9048H43.7619V61.8095ZM49.8571 61.8095H55.9524V67.9048H49.8571V61.8095ZM55.9524 61.8095H62.0476V67.9048H55.9524V61.8095ZM25.4762 67.9048H31.5714V74H25.4762V67.9048ZM31.5714 67.9048H37.6667V74H31.5714V67.9048ZM37.6667 67.9048H43.7619V74H37.6667V67.9048ZM19.381 55.7143H25.4762V61.8095H19.381V55.7143ZM25.4762 55.7143H31.5714V61.8095H25.4762V55.7143ZM31.5714 55.7143H37.6667V61.8095H31.5714V55.7143ZM62.0476 61.8095H68.1429V67.9048H62.0476V61.8095ZM62.0476 55.7143H68.1429V61.8095H62.0476V55.7143ZM55.9524 49.619H62.0476V55.7143H55.9524V49.619ZM68.1429 49.619H74.2381V55.7143H68.1429V49.619ZM49.8571 49.619H55.9524V55.7143H49.8571V49.619ZM43.7619 49.619H49.8571V55.7143H43.7619V49.619ZM49.8571 43.5238H55.9524V49.619H49.8571V43.5238ZM43.7619 43.5238H49.8571V49.619H43.7619V43.5238ZM37.6667 43.5238H43.7619V49.619H37.6667V43.5238ZM31.5714 43.5238H37.6667V49.619H31.5714V43.5238ZM31.5714 37.4286H37.6667V43.5238H31.5714V37.4286ZM68.1429 43.5238H74.2381V49.619H68.1429V43.5238ZM68.1429 37.4286H74.2381V43.5238H68.1429V37.4286ZM62.0476 37.4286H68.1429V43.5238H62.0476V37.4286ZM62.0476 43.5238H68.1429V49.619H62.0476V43.5238ZM55.9524 37.4286H62.0476V43.5238H55.9524V37.4286ZM49.8571 31.3333H55.9524V37.4286H49.8571V31.3333ZM43.7619 31.3333H49.8571V37.4286H43.7619V31.3333ZM37.6667 31.3333H43.7619V37.4286H37.6667V31.3333ZM55.9524 31.3333H62.0476V37.4286H55.9524V31.3333ZM62.0476 31.3333H68.1429V37.4286H62.0476V31.3333ZM1.09524 67.9048H7.19048V74H1.09524V67.9048Z"/>
</mask>
<path d="M19.381 0.85714H25.4762V6.95238H19.381V0.85714ZM25.4762 0.85714H31.5714V6.95238H25.4762V0.85714ZM31.5714 0.85714H37.6667V6.95238H31.5714V0.85714ZM37.6667 0.85714H43.7619V6.95238H37.6667V0.85714ZM43.7619 0.85714H49.8571V6.95238H43.7619V0.85714ZM13.2857 6.95238H19.381V13.0476H13.2857V6.95238ZM13.2857 13.0476H19.381V19.1429H13.2857V13.0476ZM19.381 13.0476H25.4762V19.1429H19.381V13.0476ZM19.381 19.1429H25.4762V25.2381H19.381V19.1429ZM25.4762 19.1429H31.5714V25.2381H25.4762V19.1429ZM31.5714 19.1429H37.6667V25.2381H31.5714V19.1429ZM31.5714 25.2381H37.6667V31.3333H31.5714V25.2381ZM25.4762 25.2381H31.5714V31.3333H25.4762V25.2381ZM7.19048 19.1429H13.2857V25.2381H7.19048V19.1429ZM7.19048 25.2381H13.2857V31.3333H7.19048V25.2381ZM13.2857 25.2381H19.381V31.3333H13.2857V25.2381ZM13.2857 31.3333H19.381V37.4286H13.2857V31.3333ZM19.381 31.3333H25.4762V37.4286H19.381V31.3333ZM19.381 37.4286H25.4762V43.5238H19.381V37.4286ZM25.4762 37.4286H31.5714V43.5238H25.4762V37.4286ZM49.8571 0.85714H55.9524V6.95238H49.8571V0.85714ZM43.7619 6.95238H49.8571V13.0476H43.7619V6.95238ZM49.8571 6.95238H55.9524V13.0476H49.8571V6.95238ZM55.9524 6.95238H62.0476V13.0476H55.9524V6.95238ZM62.0476 6.95238H68.1429V13.0476H62.0476V6.95238ZM55.9524 13.0476H62.0476V19.1429H55.9524V13.0476ZM68.1429 0.85714H74.2381V6.95238H68.1429V0.85714ZM37.6667 25.2381H43.7619V31.3333H37.6667V25.2381ZM43.7619 25.2381H49.8571V31.3333H43.7619V25.2381ZM49.8571 25.2381H55.9524V31.3333H49.8571V25.2381ZM7.19048 61.8095H13.2857V67.9048H7.19048V61.8095ZM13.2857 61.8095H19.381V67.9048H13.2857V61.8095ZM19.381 61.8095H25.4762V67.9048H19.381V61.8095ZM25.4762 61.8095H31.5714V67.9048H25.4762V61.8095ZM31.5714 61.8095H37.6667V67.9048H31.5714V61.8095ZM37.6667 61.8095H43.7619V67.9048H37.6667V61.8095ZM43.7619 61.8095H49.8571V67.9048H43.7619V61.8095ZM49.8571 61.8095H55.9524V67.9048H49.8571V61.8095ZM55.9524 61.8095H62.0476V67.9048H55.9524V61.8095ZM25.4762 67.9048H31.5714V74H25.4762V67.9048ZM31.5714 67.9048H37.6667V74H31.5714V67.9048ZM37.6667 67.9048H43.7619V74H37.6667V67.9048ZM19.381 55.7143H25.4762V61.8095H19.381V55.7143ZM25.4762 55.7143H31.5714V61.8095H25.4762V55.7143ZM31.5714 55.7143H37.6667V61.8095H31.5714V55.7143ZM62.0476 61.8095H68.1429V67.9048H62.0476V61.8095ZM62.0476 55.7143H68.1429V61.8095H62.0476V55.7143ZM55.9524 49.619H62.0476V55.7143H55.9524V49.619ZM68.1429 49.619H74.2381V55.7143H68.1429V49.619ZM49.8571 49.619H55.9524V55.7143H49.8571V49.619ZM43.7619 49.619H49.8571V55.7143H43.7619V49.619ZM49.8571 43.5238H55.9524V49.619H49.8571V43.5238ZM43.7619 43.5238H49.8571V49.619H43.7619V43.5238ZM37.6667 43.5238H43.7619V49.619H37.6667V43.5238ZM31.5714 43.5238H37.6667V49.619H31.5714V43.5238ZM31.5714 37.4286H37.6667V43.5238H31.5714V37.4286ZM68.1429 43.5238H74.2381V49.619H68.1429V43.5238ZM68.1429 37.4286H74.2381V43.5238H68.1429V37.4286ZM62.0476 37.4286H68.1429V43.5238H62.0476V37.4286ZM62.0476 43.5238H68.1429V49.619H62.0476V43.5238ZM55.9524 37.4286H62.0476V43.5238H55.9524V37.4286ZM49.8571 31.3333H55.9524V37.4286H49.8571V31.3333ZM43.7619 31.3333H49.8571V37.4286H43.7619V31.3333ZM37.6667 31.3333H43.7619V37.4286H37.6667V31.3333ZM55.9524 31.3333H62.0476V37.4286H55.9524V31.3333ZM62.0476 31.3333H68.1429V37.4286H62.0476V31.3333ZM1.09524 67.9048H7.19048V74H1.09524V67.9048Z" fill="#FFCD07"/>
<path d="M19.381 0.85714V0.35714H18.881V0.85714H19.381ZM25.4762 0.85714H25.9762V0.35714H25.4762V0.85714ZM25.4762 6.95238V7.45238H25.9762V6.95238H25.4762ZM19.381 6.95238H18.881V7.45238H19.381V6.95238ZM25.4762 0.85714V0.35714H24.9762V0.85714H25.4762ZM31.5714 0.85714H32.0714V0.35714H31.5714V0.85714ZM31.5714 6.95238V7.45238H32.0714V6.95238H31.5714ZM25.4762 6.95238H24.9762V7.45238H25.4762V6.95238ZM31.5714 0.85714V0.35714H31.0714V0.85714H31.5714ZM37.6667 0.85714H38.1667V0.35714H37.6667V0.85714ZM37.6667 6.95238V7.45238H38.1667V6.95238H37.6667ZM31.5714 6.95238H31.0714V7.45238H31.5714V6.95238ZM37.6667 0.85714V0.35714H37.1667V0.85714H37.6667ZM43.7619 0.85714H44.2619V0.35714H43.7619V0.85714ZM43.7619 6.95238V7.45238H44.2619V6.95238H43.7619ZM37.6667 6.95238H37.1667V7.45238H37.6667V6.95238ZM43.7619 0.85714V0.35714H43.2619V0.85714H43.7619ZM49.8571 0.85714H50.3571V0.35714H49.8571V0.85714ZM49.8571 6.95238V7.45238H50.3571V6.95238H49.8571ZM43.7619 6.95238H43.2619V7.45238H43.7619V6.95238ZM13.2857 6.95238V6.45238H12.7857V6.95238H13.2857ZM19.381 6.95238H19.881V6.45238H19.381V6.95238ZM19.381 13.0476V13.5476H19.881V13.0476H19.381ZM13.2857 13.0476H12.7857V13.5476H13.2857V13.0476ZM13.2857 13.0476V12.5476H12.7857V13.0476H13.2857ZM19.381 13.0476H19.881V12.5476H19.381V13.0476ZM19.381 19.1429V19.6429H19.881V19.1429H19.381ZM13.2857 19.1429H12.7857V19.6429H13.2857V19.1429ZM19.381 13.0476V12.5476H18.881V13.0476H19.381ZM25.4762 13.0476H25.9762V12.5476H25.4762V13.0476ZM25.4762 19.1429V19.6429H25.9762V19.1429H25.4762ZM19.381 19.1429H18.881V19.6429H19.381V19.1429ZM19.381 19.1429V18.6429H18.881V19.1429H19.381ZM25.4762 19.1429H25.9762V18.6429H25.4762V19.1429ZM25.4762 25.2381V25.7381H25.9762V25.2381H25.4762ZM19.381 25.2381H18.881V25.7381H19.381V25.2381ZM25.4762 19.1429V18.6429H24.9762V19.1429H25.4762ZM31.5714 19.1429H32.0714V18.6429H31.5714V19.1429ZM31.5714 25.2381V25.7381H32.0714V25.2381H31.5714ZM25.4762 25.2381H24.9762V25.7381H25.4762V25.2381ZM31.5714 19.1429V18.6429H31.0714V19.1429H31.5714ZM37.6667 19.1429H38.1667V18.6429H37.6667V19.1429ZM37.6667 25.2381V25.7381H38.1667V25.2381H37.6667ZM31.5714 25.2381H31.0714V25.7381H31.5714V25.2381ZM31.5714 25.2381V24.7381H31.0714V25.2381H31.5714ZM37.6667 25.2381H38.1667V24.7381H37.6667V25.2381ZM37.6667 31.3333V31.8333H38.1667V31.3333H37.6667ZM31.5714 31.3333H31.0714V31.8333H31.5714V31.3333ZM25.4762 25.2381V24.7381H24.9762V25.2381H25.4762ZM31.5714 25.2381H32.0714V24.7381H31.5714V25.2381ZM31.5714 31.3333V31.8333H32.0714V31.3333H31.5714ZM25.4762 31.3333H24.9762V31.8333H25.4762V31.3333ZM7.19048 19.1429V18.6429H6.69048V19.1429H7.19048ZM13.2857 19.1429H13.7857V18.6429H13.2857V19.1429ZM13.2857 25.2381V25.7381H13.7857V25.2381H13.2857ZM7.19048 25.2381H6.69048V25.7381H7.19048V25.2381ZM7.19048 25.2381V24.7381H6.69048V25.2381H7.19048ZM13.2857 25.2381H13.7857V24.7381H13.2857V25.2381ZM13.2857 31.3333V31.8333H13.7857V31.3333H13.2857ZM7.19048 31.3333H6.69048V31.8333H7.19048V31.3333ZM13.2857 25.2381V24.7381H12.7857V25.2381H13.2857ZM19.381 25.2381H19.881V24.7381H19.381V25.2381ZM19.381 31.3333V31.8333H19.881V31.3333H19.381ZM13.2857 31.3333H12.7857V31.8333H13.2857V31.3333ZM13.2857 31.3333V30.8333H12.7857V31.3333H13.2857ZM19.381 31.3333H19.881V30.8333H19.381V31.3333ZM19.381 37.4286V37.9286H19.881V37.4286H19.381ZM13.2857 37.4286H12.7857V37.9286H13.2857V37.4286ZM19.381 31.3333V30.8333H18.881V31.3333H19.381ZM25.4762 31.3333H25.9762V30.8333H25.4762V31.3333ZM25.4762 37.4286V37.9286H25.9762V37.4286H25.4762ZM19.381 37.4286H18.881V37.9286H19.381V37.4286ZM19.381 37.4286V36.9286H18.881V37.4286H19.381ZM25.4762 37.4286H25.9762V36.9286H25.4762V37.4286ZM25.4762 43.5238V44.0238H25.9762V43.5238H25.4762ZM19.381 43.5238H18.881V44.0238H19.381V43.5238ZM25.4762 37.4286V36.9286H24.9762V37.4286H25.4762ZM31.5714 37.4286H32.0714V36.9286H31.5714V37.4286ZM31.5714 43.5238V44.0238H32.0714V43.5238H31.5714ZM25.4762 43.5238H24.9762V44.0238H25.4762V43.5238ZM49.8571 0.85714V0.35714H49.3571V0.85714H49.8571ZM55.9524 0.85714H56.4524V0.35714H55.9524V0.85714ZM55.9524 6.95238V7.45238H56.4524V6.95238H55.9524ZM49.8571 6.95238H49.3571V7.45238H49.8571V6.95238ZM43.7619 6.95238V6.45238H43.2619V6.95238H43.7619ZM49.8571 6.95238H50.3571V6.45238H49.8571V6.95238ZM49.8571 13.0476V13.5476H50.3571V13.0476H49.8571ZM43.7619 13.0476H43.2619V13.5476H43.7619V13.0476ZM49.8571 6.95238V6.45238H49.3571V6.95238H49.8571ZM55.9524 6.95238H56.4524V6.45238H55.9524V6.95238ZM55.9524 13.0476V13.5476H56.4524V13.0476H55.9524ZM49.8571 13.0476H49.3571V13.5476H49.8571V13.0476ZM55.9524 6.95238V6.45238H55.4524V6.95238H55.9524ZM62.0476 6.95238H62.5476V6.45238H62.0476V6.95238ZM62.0476 13.0476V13.5476H62.5476V13.0476H62.0476ZM55.9524 13.0476H55.4524V13.5476H55.9524V13.0476ZM62.0476 6.95238V6.45238H61.5476V6.95238H62.0476ZM68.1429 6.95238H68.6429V6.45238H68.1429V6.95238ZM68.1429 13.0476V13.5476H68.6429V13.0476H68.1429ZM62.0476 13.0476H61.5476V13.5476H62.0476V13.0476ZM55.9524 13.0476V12.5476H55.4524V13.0476H55.9524ZM62.0476 13.0476H62.5476V12.5476H62.0476V13.0476ZM62.0476 19.1429V19.6429H62.5476V19.1429H62.0476ZM55.9524 19.1429H55.4524V19.6429H55.9524V19.1429ZM68.1429 0.85714V0.35714H67.6429V0.85714H68.1429ZM74.2381 0.85714H74.7381V0.35714H74.2381V0.85714ZM74.2381 6.95238V7.45238H74.7381V6.95238H74.2381ZM68.1429 6.95238H67.6429V7.45238H68.1429V6.95238ZM37.6667 25.2381V24.7381H37.1667V25.2381H37.6667ZM43.7619 25.2381H44.2619V24.7381H43.7619V25.2381ZM43.7619 31.3333V31.8333H44.2619V31.3333H43.7619ZM37.6667 31.3333H37.1667V31.8333H37.6667V31.3333ZM43.7619 25.2381V24.7381H43.2619V25.2381H43.7619ZM49.8571 25.2381H50.3571V24.7381H49.8571V25.2381ZM49.8571 31.3333V31.8333H50.3571V31.3333H49.8571ZM43.7619 31.3333H43.2619V31.8333H43.7619V31.3333ZM49.8571 25.2381V24.7381H49.3571V25.2381H49.8571ZM55.9524 25.2381H56.4524V24.7381H55.9524V25.2381ZM55.9524 31.3333V31.8333H56.4524V31.3333H55.9524ZM49.8571 31.3333H49.3571V31.8333H49.8571V31.3333ZM7.19048 61.8095V61.3095H6.69048V61.8095H7.19048ZM13.2857 61.8095H13.7857V61.3095H13.2857V61.8095ZM13.2857 67.9048V68.4048H13.7857V67.9048H13.2857ZM7.19048 67.9048H6.69048V68.4048H7.19048V67.9048ZM13.2857 61.8095V61.3095H12.7857V61.8095H13.2857ZM19.381 61.8095H19.881V61.3095H19.381V61.8095ZM19.381 67.9048V68.4048H19.881V67.9048H19.381ZM13.2857 67.9048H12.7857V68.4048H13.2857V67.9048ZM19.381 61.8095V61.3095H18.881V61.8095H19.381ZM25.4762 61.8095H25.9762V61.3095H25.4762V61.8095ZM25.4762 67.9048V68.4048H25.9762V67.9048H25.4762ZM19.381 67.9048H18.881V68.4048H19.381V67.9048ZM25.4762 61.8095V61.3095H24.9762V61.8095H25.4762ZM31.5714 61.8095H32.0714V61.3095H31.5714V61.8095ZM31.5714 67.9048V68.4048H32.0714V67.9048H31.5714ZM25.4762 67.9048H24.9762V68.4048H25.4762V67.9048ZM31.5714 61.8095V61.3095H31.0714V61.8095H31.5714ZM37.6667 61.8095H38.1667V61.3095H37.6667V61.8095ZM37.6667 67.9048V68.4048H38.1667V67.9048H37.6667ZM31.5714 67.9048H31.0714V68.4048H31.5714V67.9048ZM37.6667 61.8095V61.3095H37.1667V61.8095H37.6667ZM43.7619 61.8095H44.2619V61.3095H43.7619V61.8095ZM43.7619 67.9048V68.4048H44.2619V67.9048H43.7619ZM37.6667 67.9048H37.1667V68.4048H37.6667V67.9048ZM43.7619 61.8095V61.3095H43.2619V61.8095H43.7619ZM49.8571 61.8095H50.3571V61.3095H49.8571V61.8095ZM49.8571 67.9048V68.4048H50.3571V67.9048H49.8571ZM43.7619 67.9048H43.2619V68.4048H43.7619V67.9048ZM49.8571 61.8095V61.3095H49.3571V61.8095H49.8571ZM55.9524 61.8095H56.4524V61.3095H55.9524V61.8095ZM55.9524 67.9048V68.4048H56.4524V67.9048H55.9524ZM49.8571 67.9048H49.3571V68.4048H49.8571V67.9048ZM55.9524 61.8095V61.3095H55.4524V61.8095H55.9524ZM62.0476 61.8095H62.5476V61.3095H62.0476V61.8095ZM62.0476 67.9048V68.4048H62.5476V67.9048H62.0476ZM55.9524 67.9048H55.4524V68.4048H55.9524V67.9048ZM25.4762 67.9048V67.4048H24.9762V67.9048H25.4762ZM31.5714 67.9048H32.0714V67.4048H31.5714V67.9048ZM31.5714 74V74.5H32.0714V74H31.5714ZM25.4762 74H24.9762V74.5H25.4762V74ZM31.5714 67.9048V67.4048H31.0714V67.9048H31.5714ZM37.6667 67.9048H38.1667V67.4048H37.6667V67.9048ZM37.6667 74V74.5H38.1667V74H37.6667ZM31.5714 74H31.0714V74.5H31.5714V74ZM37.6667 67.9048V67.4048H37.1667V67.9048H37.6667ZM43.7619 67.9048H44.2619V67.4048H43.7619V67.9048ZM43.7619 74V74.5H44.2619V74H43.7619ZM37.6667 74H37.1667V74.5H37.6667V74ZM19.381 55.7143V55.2143H18.881V55.7143H19.381ZM25.4762 55.7143H25.9762V55.2143H25.4762V55.7143ZM25.4762 61.8095V62.3095H25.9762V61.8095H25.4762ZM19.381 61.8095H18.881V62.3095H19.381V61.8095ZM25.4762 55.7143V55.2143H24.9762V55.7143H25.4762ZM31.5714 55.7143H32.0714V55.2143H31.5714V55.7143ZM31.5714 61.8095V62.3095H32.0714V61.8095H31.5714ZM25.4762 61.8095H24.9762V62.3095H25.4762V61.8095ZM31.5714 55.7143V55.2143H31.0714V55.7143H31.5714ZM37.6667 55.7143H38.1667V55.2143H37.6667V55.7143ZM37.6667 61.8095V62.3095H38.1667V61.8095H37.6667ZM31.5714 61.8095H31.0714V62.3095H31.5714V61.8095ZM62.0476 61.8095V61.3095H61.5476V61.8095H62.0476ZM68.1429 61.8095H68.6429V61.3095H68.1429V61.8095ZM68.1429 67.9048V68.4048H68.6429V67.9048H68.1429ZM62.0476 67.9048H61.5476V68.4048H62.0476V67.9048ZM62.0476 55.7143V55.2143H61.5476V55.7143H62.0476ZM68.1429 55.7143H68.6429V55.2143H68.1429V55.7143ZM68.1429 61.8095V62.3095H68.6429V61.8095H68.1429ZM62.0476 61.8095H61.5476V62.3095H62.0476V61.8095ZM55.9524 49.619V49.119H55.4524V49.619H55.9524ZM62.0476 49.619H62.5476V49.119H62.0476V49.619ZM62.0476 55.7143V56.2143H62.5476V55.7143H62.0476ZM55.9524 55.7143H55.4524V56.2143H55.9524V55.7143ZM68.1429 49.619V49.119H67.6429V49.619H68.1429ZM74.2381 49.619H74.7381V49.119H74.2381V49.619ZM74.2381 55.7143V56.2143H74.7381V55.7143H74.2381ZM68.1429 55.7143H67.6429V56.2143H68.1429V55.7143ZM49.8571 49.619V49.119H49.3571V49.619H49.8571ZM55.9524 49.619H56.4524V49.119H55.9524V49.619ZM55.9524 55.7143V56.2143H56.4524V55.7143H55.9524ZM49.8571 55.7143H49.3571V56.2143H49.8571V55.7143ZM43.7619 49.619V49.119H43.2619V49.619H43.7619ZM49.8571 49.619H50.3571V49.119H49.8571V49.619ZM49.8571 55.7143V56.2143H50.3571V55.7143H49.8571ZM43.7619 55.7143H43.2619V56.2143H43.7619V55.7143ZM49.8571 43.5238V43.0238H49.3571V43.5238H49.8571ZM55.9524 43.5238H56.4524V43.0238H55.9524V43.5238ZM55.9524 49.619V50.119H56.4524V49.619H55.9524ZM49.8571 49.619H49.3571V50.119H49.8571V49.619ZM43.7619 43.5238V43.0238H43.2619V43.5238H43.7619ZM49.8571 43.5238H50.3571V43.0238H49.8571V43.5238ZM49.8571 49.619V50.119H50.3571V49.619H49.8571ZM43.7619 49.619H43.2619V50.119H43.7619V49.619ZM37.6667 43.5238V43.0238H37.1667V43.5238H37.6667ZM43.7619 43.5238H44.2619V43.0238H43.7619V43.5238ZM43.7619 49.619V50.119H44.2619V49.619H43.7619ZM37.6667 49.619H37.1667V50.119H37.6667V49.619ZM31.5714 43.5238V43.0238H31.0714V43.5238H31.5714ZM37.6667 43.5238H38.1667V43.0238H37.6667V43.5238ZM37.6667 49.619V50.119H38.1667V49.619H37.6667ZM31.5714 49.619H31.0714V50.119H31.5714V49.619ZM31.5714 37.4286V36.9286H31.0714V37.4286H31.5714ZM37.6667 37.4286H38.1667V36.9286H37.6667V37.4286ZM37.6667 43.5238V44.0238H38.1667V43.5238H37.6667ZM31.5714 43.5238H31.0714V44.0238H31.5714V43.5238ZM68.1429 43.5238V43.0238H67.6429V43.5238H68.1429ZM74.2381 43.5238H74.7381V43.0238H74.2381V43.5238ZM74.2381 49.619V50.119H74.7381V49.619H74.2381ZM68.1429 49.619H67.6429V50.119H68.1429V49.619ZM68.1429 37.4286V36.9286H67.6429V37.4286H68.1429ZM74.2381 37.4286H74.7381V36.9286H74.2381V37.4286ZM74.2381 43.5238V44.0238H74.7381V43.5238H74.2381ZM68.1429 43.5238H67.6429V44.0238H68.1429V43.5238ZM62.0476 37.4286V36.9286H61.5476V37.4286H62.0476ZM68.1429 37.4286H68.6429V36.9286H68.1429V37.4286ZM68.1429 43.5238V44.0238H68.6429V43.5238H68.1429ZM62.0476 43.5238H61.5476V44.0238H62.0476V43.5238ZM62.0476 43.5238V43.0238H61.5476V43.5238H62.0476ZM68.1429 43.5238H68.6429V43.0238H68.1429V43.5238ZM68.1429 49.619V50.119H68.6429V49.619H68.1429ZM62.0476 49.619H61.5476V50.119H62.0476V49.619ZM55.9524 37.4286V36.9286H55.4524V37.4286H55.9524ZM62.0476 37.4286H62.5476V36.9286H62.0476V37.4286ZM62.0476 43.5238V44.0238H62.5476V43.5238H62.0476ZM55.9524 43.5238H55.4524V44.0238H55.9524V43.5238ZM49.8571 31.3333V30.8333H49.3571V31.3333H49.8571ZM55.9524 31.3333H56.4524V30.8333H55.9524V31.3333ZM55.9524 37.4286V37.9286H56.4524V37.4286H55.9524ZM49.8571 37.4286H49.3571V37.9286H49.8571V37.4286ZM43.7619 31.3333V30.8333H43.2619V31.3333H43.7619ZM49.8571 31.3333H50.3571V30.8333H49.8571V31.3333ZM49.8571 37.4286V37.9286H50.3571V37.4286H49.8571ZM43.7619 37.4286H43.2619V37.9286H43.7619V37.4286ZM37.6667 31.3333V30.8333H37.1667V31.3333H37.6667ZM43.7619 31.3333H44.2619V30.8333H43.7619V31.3333ZM43.7619 37.4286V37.9286H44.2619V37.4286H43.7619ZM37.6667 37.4286H37.1667V37.9286H37.6667V37.4286ZM55.9524 31.3333V30.8333H55.4524V31.3333H55.9524ZM62.0476 31.3333H62.5476V30.8333H62.0476V31.3333ZM62.0476 37.4286V37.9286H62.5476V37.4286H62.0476ZM55.9524 37.4286H55.4524V37.9286H55.9524V37.4286ZM62.0476 31.3333V30.8333H61.5476V31.3333H62.0476ZM68.1429 31.3333H68.6429V30.8333H68.1429V31.3333ZM68.1429 37.4286V37.9286H68.6429V37.4286H68.1429ZM62.0476 37.4286H61.5476V37.9286H62.0476V37.4286ZM1.09524 67.9048V67.4048H0.595238V67.9048H1.09524ZM7.19048 67.9048H7.69048V67.4048H7.19048V67.9048ZM7.19048 74V74.5H7.69048V74H7.19048ZM1.09524 74H0.595238V74.5H1.09524V74ZM19.381 0.85714V1.35714H25.4762V0.85714V0.35714H19.381V0.85714ZM25.4762 0.85714H24.9762V6.95238H25.4762H25.9762V0.85714H25.4762ZM25.4762 6.95238V6.45238H19.381V6.95238V7.45238H25.4762V6.95238ZM19.381 6.95238H19.881V0.85714H19.381H18.881V6.95238H19.381ZM25.4762 0.85714V1.35714H31.5714V0.85714V0.35714H25.4762V0.85714ZM31.5714 0.85714H31.0714V6.95238H31.5714H32.0714V0.85714H31.5714ZM31.5714 6.95238V6.45238H25.4762V6.95238V7.45238H31.5714V6.95238ZM25.4762 6.95238H25.9762V0.85714H25.4762H24.9762V6.95238H25.4762ZM31.5714 0.85714V1.35714H37.6667V0.85714V0.35714H31.5714V0.85714ZM37.6667 0.85714H37.1667V6.95238H37.6667H38.1667V0.85714H37.6667ZM37.6667 6.95238V6.45238H31.5714V6.95238V7.45238H37.6667V6.95238ZM31.5714 6.95238H32.0714V0.85714H31.5714H31.0714V6.95238H31.5714ZM37.6667 0.85714V1.35714H43.7619V0.85714V0.35714H37.6667V0.85714ZM43.7619 0.85714H43.2619V6.95238H43.7619H44.2619V0.85714H43.7619ZM43.7619 6.95238V6.45238H37.6667V6.95238V7.45238H43.7619V6.95238ZM37.6667 6.95238H38.1667V0.85714H37.6667H37.1667V6.95238H37.6667ZM43.7619 0.85714V1.35714H49.8571V0.85714V0.35714H43.7619V0.85714ZM49.8571 0.85714H49.3571V6.95238H49.8571H50.3571V0.85714H49.8571ZM49.8571 6.95238V6.45238H43.7619V6.95238V7.45238H49.8571V6.95238ZM43.7619 6.95238H44.2619V0.85714H43.7619H43.2619V6.95238H43.7619ZM13.2857 6.95238V7.45238H19.381V6.95238V6.45238H13.2857V6.95238ZM19.381 6.95238H18.881V13.0476H19.381H19.881V6.95238H19.381ZM19.381 13.0476V12.5476H13.2857V13.0476V13.5476H19.381V13.0476ZM13.2857 13.0476H13.7857V6.95238H13.2857H12.7857V13.0476H13.2857ZM13.2857 13.0476V13.5476H19.381V13.0476V12.5476H13.2857V13.0476ZM19.381 13.0476H18.881V19.1429H19.381H19.881V13.0476H19.381ZM19.381 19.1429V18.6429H13.2857V19.1429V19.6429H19.381V19.1429ZM13.2857 19.1429H13.7857V13.0476H13.2857H12.7857V19.1429H13.2857ZM19.381 13.0476V13.5476H25.4762V13.0476V12.5476H19.381V13.0476ZM25.4762 13.0476H24.9762V19.1429H25.4762H25.9762V13.0476H25.4762ZM25.4762 19.1429V18.6429H19.381V19.1429V19.6429H25.4762V19.1429ZM19.381 19.1429H19.881V13.0476H19.381H18.881V19.1429H19.381ZM19.381 19.1429V19.6429H25.4762V19.1429V18.6429H19.381V19.1429ZM25.4762 19.1429H24.9762V25.2381H25.4762H25.9762V19.1429H25.4762ZM25.4762 25.2381V24.7381H19.381V25.2381V25.7381H25.4762V25.2381ZM19.381 25.2381H19.881V19.1429H19.381H18.881V25.2381H19.381ZM25.4762 19.1429V19.6429H31.5714V19.1429V18.6429H25.4762V19.1429ZM31.5714 19.1429H31.0714V25.2381H31.5714H32.0714V19.1429H31.5714ZM31.5714 25.2381V24.7381H25.4762V25.2381V25.7381H31.5714V25.2381ZM25.4762 25.2381H25.9762V19.1429H25.4762H24.9762V25.2381H25.4762ZM31.5714 19.1429V19.6429H37.6667V19.1429V18.6429H31.5714V19.1429ZM37.6667 19.1429H37.1667V25.2381H37.6667H38.1667V19.1429H37.6667ZM37.6667 25.2381V24.7381H31.5714V25.2381V25.7381H37.6667V25.2381ZM31.5714 25.2381H32.0714V19.1429H31.5714H31.0714V25.2381H31.5714ZM31.5714 25.2381V25.7381H37.6667V25.2381V24.7381H31.5714V25.2381ZM37.6667 25.2381H37.1667V31.3333H37.6667H38.1667V25.2381H37.6667ZM37.6667 31.3333V30.8333H31.5714V31.3333V31.8333H37.6667V31.3333ZM31.5714 31.3333H32.0714V25.2381H31.5714H31.0714V31.3333H31.5714ZM25.4762 25.2381V25.7381H31.5714V25.2381V24.7381H25.4762V25.2381ZM31.5714 25.2381H31.0714V31.3333H31.5714H32.0714V25.2381H31.5714ZM31.5714 31.3333V30.8333H25.4762V31.3333V31.8333H31.5714V31.3333ZM25.4762 31.3333H25.9762V25.2381H25.4762H24.9762V31.3333H25.4762ZM7.19048 19.1429V19.6429H13.2857V19.1429V18.6429H7.19048V19.1429ZM13.2857 19.1429H12.7857V25.2381H13.2857H13.7857V19.1429H13.2857ZM13.2857 25.2381V24.7381H7.19048V25.2381V25.7381H13.2857V25.2381ZM7.19048 25.2381H7.69048V19.1429H7.19048H6.69048V25.2381H7.19048ZM7.19048 25.2381V25.7381H13.2857V25.2381V24.7381H7.19048V25.2381ZM13.2857 25.2381H12.7857V31.3333H13.2857H13.7857V25.2381H13.2857ZM13.2857 31.3333V30.8333H7.19048V31.3333V31.8333H13.2857V31.3333ZM7.19048 31.3333H7.69048V25.2381H7.19048H6.69048V31.3333H7.19048ZM13.2857 25.2381V25.7381H19.381V25.2381V24.7381H13.2857V25.2381ZM19.381 25.2381H18.881V31.3333H19.381H19.881V25.2381H19.381ZM19.381 31.3333V30.8333H13.2857V31.3333V31.8333H19.381V31.3333ZM13.2857 31.3333H13.7857V25.2381H13.2857H12.7857V31.3333H13.2857ZM13.2857 31.3333V31.8333H19.381V31.3333V30.8333H13.2857V31.3333ZM19.381 31.3333H18.881V37.4286H19.381H19.881V31.3333H19.381ZM19.381 37.4286V36.9286H13.2857V37.4286V37.9286H19.381V37.4286ZM13.2857 37.4286H13.7857V31.3333H13.2857H12.7857V37.4286H13.2857ZM19.381 31.3333V31.8333H25.4762V31.3333V30.8333H19.381V31.3333ZM25.4762 31.3333H24.9762V37.4286H25.4762H25.9762V31.3333H25.4762ZM25.4762 37.4286V36.9286H19.381V37.4286V37.9286H25.4762V37.4286ZM19.381 37.4286H19.881V31.3333H19.381H18.881V37.4286H19.381ZM19.381 37.4286V37.9286H25.4762V37.4286V36.9286H19.381V37.4286ZM25.4762 37.4286H24.9762V43.5238H25.4762H25.9762V37.4286H25.4762ZM25.4762 43.5238V43.0238H19.381V43.5238V44.0238H25.4762V43.5238ZM19.381 43.5238H19.881V37.4286H19.381H18.881V43.5238H19.381ZM25.4762 37.4286V37.9286H31.5714V37.4286V36.9286H25.4762V37.4286ZM31.5714 37.4286H31.0714V43.5238H31.5714H32.0714V37.4286H31.5714ZM31.5714 43.5238V43.0238H25.4762V43.5238V44.0238H31.5714V43.5238ZM25.4762 43.5238H25.9762V37.4286H25.4762H24.9762V43.5238H25.4762ZM49.8571 0.85714V1.35714H55.9524V0.85714V0.35714H49.8571V0.85714ZM55.9524 0.85714H55.4524V6.95238H55.9524H56.4524V0.85714H55.9524ZM55.9524 6.95238V6.45238H49.8571V6.95238V7.45238H55.9524V6.95238ZM49.8571 6.95238H50.3571V0.85714H49.8571H49.3571V6.95238H49.8571ZM43.7619 6.95238V7.45238H49.8571V6.95238V6.45238H43.7619V6.95238ZM49.8571 6.95238H49.3571V13.0476H49.8571H50.3571V6.95238H49.8571ZM49.8571 13.0476V12.5476H43.7619V13.0476V13.5476H49.8571V13.0476ZM43.7619 13.0476H44.2619V6.95238H43.7619H43.2619V13.0476H43.7619ZM49.8571 6.95238V7.45238H55.9524V6.95238V6.45238H49.8571V6.95238ZM55.9524 6.95238H55.4524V13.0476H55.9524H56.4524V6.95238H55.9524ZM55.9524 13.0476V12.5476H49.8571V13.0476V13.5476H55.9524V13.0476ZM49.8571 13.0476H50.3571V6.95238H49.8571H49.3571V13.0476H49.8571ZM55.9524 6.95238V7.45238H62.0476V6.95238V6.45238H55.9524V6.95238ZM62.0476 6.95238H61.5476V13.0476H62.0476H62.5476V6.95238H62.0476ZM62.0476 13.0476V12.5476H55.9524V13.0476V13.5476H62.0476V13.0476ZM55.9524 13.0476H56.4524V6.95238H55.9524H55.4524V13.0476H55.9524ZM62.0476 6.95238V7.45238H68.1429V6.95238V6.45238H62.0476V6.95238ZM68.1429 6.95238H67.6429V13.0476H68.1429H68.6429V6.95238H68.1429ZM68.1429 13.0476V12.5476H62.0476V13.0476V13.5476H68.1429V13.0476ZM62.0476 13.0476H62.5476V6.95238H62.0476H61.5476V13.0476H62.0476ZM55.9524 13.0476V13.5476H62.0476V13.0476V12.5476H55.9524V13.0476ZM62.0476 13.0476H61.5476V19.1429H62.0476H62.5476V13.0476H62.0476ZM62.0476 19.1429V18.6429H55.9524V19.1429V19.6429H62.0476V19.1429ZM55.9524 19.1429H56.4524V13.0476H55.9524H55.4524V19.1429H55.9524ZM68.1429 0.85714V1.35714H74.2381V0.85714V0.35714H68.1429V0.85714ZM74.2381 0.85714H73.7381V6.95238H74.2381H74.7381V0.85714H74.2381ZM74.2381 6.95238V6.45238H68.1429V6.95238V7.45238H74.2381V6.95238ZM68.1429 6.95238H68.6429V0.85714H68.1429H67.6429V6.95238H68.1429ZM37.6667 25.2381V25.7381H43.7619V25.2381V24.7381H37.6667V25.2381ZM43.7619 25.2381H43.2619V31.3333H43.7619H44.2619V25.2381H43.7619ZM43.7619 31.3333V30.8333H37.6667V31.3333V31.8333H43.7619V31.3333ZM37.6667 31.3333H38.1667V25.2381H37.6667H37.1667V31.3333H37.6667ZM43.7619 25.2381V25.7381H49.8571V25.2381V24.7381H43.7619V25.2381ZM49.8571 25.2381H49.3571V31.3333H49.8571H50.3571V25.2381H49.8571ZM49.8571 31.3333V30.8333H43.7619V31.3333V31.8333H49.8571V31.3333ZM43.7619 31.3333H44.2619V25.2381H43.7619H43.2619V31.3333H43.7619ZM49.8571 25.2381V25.7381H55.9524V25.2381V24.7381H49.8571V25.2381ZM55.9524 25.2381H55.4524V31.3333H55.9524H56.4524V25.2381H55.9524ZM55.9524 31.3333V30.8333H49.8571V31.3333V31.8333H55.9524V31.3333ZM49.8571 31.3333H50.3571V25.2381H49.8571H49.3571V31.3333H49.8571ZM7.19048 61.8095V62.3095H13.2857V61.8095V61.3095H7.19048V61.8095ZM13.2857 61.8095H12.7857V67.9048H13.2857H13.7857V61.8095H13.2857ZM13.2857 67.9048V67.4048H7.19048V67.9048V68.4048H13.2857V67.9048ZM7.19048 67.9048H7.69048V61.8095H7.19048H6.69048V67.9048H7.19048ZM13.2857 61.8095V62.3095H19.381V61.8095V61.3095H13.2857V61.8095ZM19.381 61.8095H18.881V67.9048H19.381H19.881V61.8095H19.381ZM19.381 67.9048V67.4048H13.2857V67.9048V68.4048H19.381V67.9048ZM13.2857 67.9048H13.7857V61.8095H13.2857H12.7857V67.9048H13.2857ZM19.381 61.8095V62.3095H25.4762V61.8095V61.3095H19.381V61.8095ZM25.4762 61.8095H24.9762V67.9048H25.4762H25.9762V61.8095H25.4762ZM25.4762 67.9048V67.4048H19.381V67.9048V68.4048H25.4762V67.9048ZM19.381 67.9048H19.881V61.8095H19.381H18.881V67.9048H19.381ZM25.4762 61.8095V62.3095H31.5714V61.8095V61.3095H25.4762V61.8095ZM31.5714 61.8095H31.0714V67.9048H31.5714H32.0714V61.8095H31.5714ZM31.5714 67.9048V67.4048H25.4762V67.9048V68.4048H31.5714V67.9048ZM25.4762 67.9048H25.9762V61.8095H25.4762H24.9762V67.9048H25.4762ZM31.5714 61.8095V62.3095H37.6667V61.8095V61.3095H31.5714V61.8095ZM37.6667 61.8095H37.1667V67.9048H37.6667H38.1667V61.8095H37.6667ZM37.6667 67.9048V67.4048H31.5714V67.9048V68.4048H37.6667V67.9048ZM31.5714 67.9048H32.0714V61.8095H31.5714H31.0714V67.9048H31.5714ZM37.6667 61.8095V62.3095H43.7619V61.8095V61.3095H37.6667V61.8095ZM43.7619 61.8095H43.2619V67.9048H43.7619H44.2619V61.8095H43.7619ZM43.7619 67.9048V67.4048H37.6667V67.9048V68.4048H43.7619V67.9048ZM37.6667 67.9048H38.1667V61.8095H37.6667H37.1667V67.9048H37.6667ZM43.7619 61.8095V62.3095H49.8571V61.8095V61.3095H43.7619V61.8095ZM49.8571 61.8095H49.3571V67.9048H49.8571H50.3571V61.8095H49.8571ZM49.8571 67.9048V67.4048H43.7619V67.9048V68.4048H49.8571V67.9048ZM43.7619 67.9048H44.2619V61.8095H43.7619H43.2619V67.9048H43.7619ZM49.8571 61.8095V62.3095H55.9524V61.8095V61.3095H49.8571V61.8095ZM55.9524 61.8095H55.4524V67.9048H55.9524H56.4524V61.8095H55.9524ZM55.9524 67.9048V67.4048H49.8571V67.9048V68.4048H55.9524V67.9048ZM49.8571 67.9048H50.3571V61.8095H49.8571H49.3571V67.9048H49.8571ZM55.9524 61.8095V62.3095H62.0476V61.8095V61.3095H55.9524V61.8095ZM62.0476 61.8095H61.5476V67.9048H62.0476H62.5476V61.8095H62.0476ZM62.0476 67.9048V67.4048H55.9524V67.9048V68.4048H62.0476V67.9048ZM55.9524 67.9048H56.4524V61.8095H55.9524H55.4524V67.9048H55.9524ZM25.4762 67.9048V68.4048H31.5714V67.9048V67.4048H25.4762V67.9048ZM31.5714 67.9048H31.0714V74H31.5714H32.0714V67.9048H31.5714ZM31.5714 74V73.5H25.4762V74V74.5H31.5714V74ZM25.4762 74H25.9762V67.9048H25.4762H24.9762V74H25.4762ZM31.5714 67.9048V68.4048H37.6667V67.9048V67.4048H31.5714V67.9048ZM37.6667 67.9048H37.1667V74H37.6667H38.1667V67.9048H37.6667ZM37.6667 74V73.5H31.5714V74V74.5H37.6667V74ZM31.5714 74H32.0714V67.9048H31.5714H31.0714V74H31.5714ZM37.6667 67.9048V68.4048H43.7619V67.9048V67.4048H37.6667V67.9048ZM43.7619 67.9048H43.2619V74H43.7619H44.2619V67.9048H43.7619ZM43.7619 74V73.5H37.6667V74V74.5H43.7619V74ZM37.6667 74H38.1667V67.9048H37.6667H37.1667V74H37.6667ZM19.381 55.7143V56.2143H25.4762V55.7143V55.2143H19.381V55.7143ZM25.4762 55.7143H24.9762V61.8095H25.4762H25.9762V55.7143H25.4762ZM25.4762 61.8095V61.3095H19.381V61.8095V62.3095H25.4762V61.8095ZM19.381 61.8095H19.881V55.7143H19.381H18.881V61.8095H19.381ZM25.4762 55.7143V56.2143H31.5714V55.7143V55.2143H25.4762V55.7143ZM31.5714 55.7143H31.0714V61.8095H31.5714H32.0714V55.7143H31.5714ZM31.5714 61.8095V61.3095H25.4762V61.8095V62.3095H31.5714V61.8095ZM25.4762 61.8095H25.9762V55.7143H25.4762H24.9762V61.8095H25.4762ZM31.5714 55.7143V56.2143H37.6667V55.7143V55.2143H31.5714V55.7143ZM37.6667 55.7143H37.1667V61.8095H37.6667H38.1667V55.7143H37.6667ZM37.6667 61.8095V61.3095H31.5714V61.8095V62.3095H37.6667V61.8095ZM31.5714 61.8095H32.0714V55.7143H31.5714H31.0714V61.8095H31.5714ZM62.0476 61.8095V62.3095H68.1429V61.8095V61.3095H62.0476V61.8095ZM68.1429 61.8095H67.6429V67.9048H68.1429H68.6429V61.8095H68.1429ZM68.1429 67.9048V67.4048H62.0476V67.9048V68.4048H68.1429V67.9048ZM62.0476 67.9048H62.5476V61.8095H62.0476H61.5476V67.9048H62.0476ZM62.0476 55.7143V56.2143H68.1429V55.7143V55.2143H62.0476V55.7143ZM68.1429 55.7143H67.6429V61.8095H68.1429H68.6429V55.7143H68.1429ZM68.1429 61.8095V61.3095H62.0476V61.8095V62.3095H68.1429V61.8095ZM62.0476 61.8095H62.5476V55.7143H62.0476H61.5476V61.8095H62.0476ZM55.9524 49.619V50.119H62.0476V49.619V49.119H55.9524V49.619ZM62.0476 49.619H61.5476V55.7143H62.0476H62.5476V49.619H62.0476ZM62.0476 55.7143V55.2143H55.9524V55.7143V56.2143H62.0476V55.7143ZM55.9524 55.7143H56.4524V49.619H55.9524H55.4524V55.7143H55.9524ZM68.1429 49.619V50.119H74.2381V49.619V49.119H68.1429V49.619ZM74.2381 49.619H73.7381V55.7143H74.2381H74.7381V49.619H74.2381ZM74.2381 55.7143V55.2143H68.1429V55.7143V56.2143H74.2381V55.7143ZM68.1429 55.7143H68.6429V49.619H68.1429H67.6429V55.7143H68.1429ZM49.8571 49.619V50.119H55.9524V49.619V49.119H49.8571V49.619ZM55.9524 49.619H55.4524V55.7143H55.9524H56.4524V49.619H55.9524ZM55.9524 55.7143V55.2143H49.8571V55.7143V56.2143H55.9524V55.7143ZM49.8571 55.7143H50.3571V49.619H49.8571H49.3571V55.7143H49.8571ZM43.7619 49.619V50.119H49.8571V49.619V49.119H43.7619V49.619ZM49.8571 49.619H49.3571V55.7143H49.8571H50.3571V49.619H49.8571ZM49.8571 55.7143V55.2143H43.7619V55.7143V56.2143H49.8571V55.7143ZM43.7619 55.7143H44.2619V49.619H43.7619H43.2619V55.7143H43.7619ZM49.8571 43.5238V44.0238H55.9524V43.5238V43.0238H49.8571V43.5238ZM55.9524 43.5238H55.4524V49.619H55.9524H56.4524V43.5238H55.9524ZM55.9524 49.619V49.119H49.8571V49.619V50.119H55.9524V49.619ZM49.8571 49.619H50.3571V43.5238H49.8571H49.3571V49.619H49.8571ZM43.7619 43.5238V44.0238H49.8571V43.5238V43.0238H43.7619V43.5238ZM49.8571 43.5238H49.3571V49.619H49.8571H50.3571V43.5238H49.8571ZM49.8571 49.619V49.119H43.7619V49.619V50.119H49.8571V49.619ZM43.7619 49.619H44.2619V43.5238H43.7619H43.2619V49.619H43.7619ZM37.6667 43.5238V44.0238H43.7619V43.5238V43.0238H37.6667V43.5238ZM43.7619 43.5238H43.2619V49.619H43.7619H44.2619V43.5238H43.7619ZM43.7619 49.619V49.119H37.6667V49.619V50.119H43.7619V49.619ZM37.6667 49.619H38.1667V43.5238H37.6667H37.1667V49.619H37.6667ZM31.5714 43.5238V44.0238H37.6667V43.5238V43.0238H31.5714V43.5238ZM37.6667 43.5238H37.1667V49.619H37.6667H38.1667V43.5238H37.6667ZM37.6667 49.619V49.119H31.5714V49.619V50.119H37.6667V49.619ZM31.5714 49.619H32.0714V43.5238H31.5714H31.0714V49.619H31.5714ZM31.5714 37.4286V37.9286H37.6667V37.4286V36.9286H31.5714V37.4286ZM37.6667 37.4286H37.1667V43.5238H37.6667H38.1667V37.4286H37.6667ZM37.6667 43.5238V43.0238H31.5714V43.5238V44.0238H37.6667V43.5238ZM31.5714 43.5238H32.0714V37.4286H31.5714H31.0714V43.5238H31.5714ZM68.1429 43.5238V44.0238H74.2381V43.5238V43.0238H68.1429V43.5238ZM74.2381 43.5238H73.7381V49.619H74.2381H74.7381V43.5238H74.2381ZM74.2381 49.619V49.119H68.1429V49.619V50.119H74.2381V49.619ZM68.1429 49.619H68.6429V43.5238H68.1429H67.6429V49.619H68.1429ZM68.1429 37.4286V37.9286H74.2381V37.4286V36.9286H68.1429V37.4286ZM74.2381 37.4286H73.7381V43.5238H74.2381H74.7381V37.4286H74.2381ZM74.2381 43.5238V43.0238H68.1429V43.5238V44.0238H74.2381V43.5238ZM68.1429 43.5238H68.6429V37.4286H68.1429H67.6429V43.5238H68.1429ZM62.0476 37.4286V37.9286H68.1429V37.4286V36.9286H62.0476V37.4286ZM68.1429 37.4286H67.6429V43.5238H68.1429H68.6429V37.4286H68.1429ZM68.1429 43.5238V43.0238H62.0476V43.5238V44.0238H68.1429V43.5238ZM62.0476 43.5238H62.5476V37.4286H62.0476H61.5476V43.5238H62.0476ZM62.0476 43.5238V44.0238H68.1429V43.5238V43.0238H62.0476V43.5238ZM68.1429 43.5238H67.6429V49.619H68.1429H68.6429V43.5238H68.1429ZM68.1429 49.619V49.119H62.0476V49.619V50.119H68.1429V49.619ZM62.0476 49.619H62.5476V43.5238H62.0476H61.5476V49.619H62.0476ZM55.9524 37.4286V37.9286H62.0476V37.4286V36.9286H55.9524V37.4286ZM62.0476 37.4286H61.5476V43.5238H62.0476H62.5476V37.4286H62.0476ZM62.0476 43.5238V43.0238H55.9524V43.5238V44.0238H62.0476V43.5238ZM55.9524 43.5238H56.4524V37.4286H55.9524H55.4524V43.5238H55.9524ZM49.8571 31.3333V31.8333H55.9524V31.3333V30.8333H49.8571V31.3333ZM55.9524 31.3333H55.4524V37.4286H55.9524H56.4524V31.3333H55.9524ZM55.9524 37.4286V36.9286H49.8571V37.4286V37.9286H55.9524V37.4286ZM49.8571 37.4286H50.3571V31.3333H49.8571H49.3571V37.4286H49.8571ZM43.7619 31.3333V31.8333H49.8571V31.3333V30.8333H43.7619V31.3333ZM49.8571 31.3333H49.3571V37.4286H49.8571H50.3571V31.3333H49.8571ZM49.8571 37.4286V36.9286H43.7619V37.4286V37.9286H49.8571V37.4286ZM43.7619 37.4286H44.2619V31.3333H43.7619H43.2619V37.4286H43.7619ZM37.6667 31.3333V31.8333H43.7619V31.3333V30.8333H37.6667V31.3333ZM43.7619 31.3333H43.2619V37.4286H43.7619H44.2619V31.3333H43.7619ZM43.7619 37.4286V36.9286H37.6667V37.4286V37.9286H43.7619V37.4286ZM37.6667 37.4286H38.1667V31.3333H37.6667H37.1667V37.4286H37.6667ZM55.9524 31.3333V31.8333H62.0476V31.3333V30.8333H55.9524V31.3333ZM62.0476 31.3333H61.5476V37.4286H62.0476H62.5476V31.3333H62.0476ZM62.0476 37.4286V36.9286H55.9524V37.4286V37.9286H62.0476V37.4286ZM55.9524 37.4286H56.4524V31.3333H55.9524H55.4524V37.4286H55.9524ZM62.0476 31.3333V31.8333H68.1429V31.3333V30.8333H62.0476V31.3333ZM68.1429 31.3333H67.6429V37.4286H68.1429H68.6429V31.3333H68.1429ZM68.1429 37.4286V36.9286H62.0476V37.4286V37.9286H68.1429V37.4286ZM62.0476 37.4286H62.5476V31.3333H62.0476H61.5476V37.4286H62.0476ZM1.09524 67.9048V68.4048H7.19048V67.9048V67.4048H1.09524V67.9048ZM7.19048 67.9048H6.69048V74H7.19048H7.69048V67.9048H7.19048ZM7.19048 74V73.5H1.09524V74V74.5H7.19048V74ZM1.09524 74H1.59524V67.9048H1.09524H0.595238V74H1.09524Z" fill="#0877F6" mask="url(#path-1-outside-1_163_200)"/>
</svg>
