<svg width="40" height="40" viewBox="0 0 40 40" fill="none" xmlns="http://www.w3.org/2000/svg">
<path d="M36.275 14.6925L10.52 11.8425L8.95 5.89374C8.89505 5.69443 8.77659 5.51848 8.61258 5.3926C8.44858 5.26672 8.24799 5.19778 8.04125 5.19624H4.175C4.03553 5.00785 3.85419 4.85446 3.64529 4.74817C3.43638 4.64187 3.20563 4.58558 2.97125 4.58374C2.55966 4.58374 2.16494 4.74724 1.87391 5.03827C1.58287 5.32931 1.41937 5.72403 1.41937 6.13562C1.41937 6.5472 1.58287 6.94192 1.87391 7.23296C2.16494 7.52399 2.55966 7.68749 2.97125 7.68749C3.47125 7.68749 3.89375 7.43749 4.1775 7.07249H7.3175L13.855 31.8225C13.1417 32.5814 12.7439 33.5834 12.7425 34.625C12.742 35.1656 12.8481 35.701 13.0547 36.2005C13.2613 36.7001 13.5644 37.154 13.9466 37.5363C14.3288 37.9186 14.7826 38.2218 15.2821 38.4286C15.7816 38.6353 16.3169 38.7416 16.8575 38.7412C17.9498 38.7416 18.9974 38.3082 19.7703 37.5363C20.5431 36.7644 20.9778 35.7173 20.9787 34.625C20.9765 34.3119 20.9375 34.0002 20.8625 33.6962H27.7787C27.7053 34.0005 27.6667 34.312 27.6637 34.625C27.6637 36.9 29.5087 38.7412 31.7837 38.7412C34.0587 38.7412 35.9 36.9 35.9 34.625C35.9003 33.5325 35.4667 32.4846 34.6946 31.7118C33.9225 30.9389 32.875 30.5044 31.7825 30.5037C30.595 30.5037 29.5325 31.0162 28.78 31.82H19.86C19.477 31.4058 19.0127 31.0752 18.496 30.8487C17.9794 30.6222 17.4216 30.5048 16.8575 30.5037C16.3825 30.5037 15.935 30.6012 15.5112 30.7487L15.2837 29.8912H33.5125C34.213 29.8769 34.8884 29.6276 35.4302 29.1833C35.972 28.7389 36.3488 28.1254 36.5 27.4412L38.4687 17.6937C38.5034 17.5234 38.5201 17.35 38.5187 17.1762C38.5197 16.5575 38.2906 15.9605 37.8759 15.5012C37.4612 15.042 36.8906 14.7545 36.275 14.6925ZM31.785 34.9925C31.6873 34.9915 31.5938 34.9524 31.5244 34.8836C31.4551 34.8147 31.4154 34.7215 31.4137 34.6237C31.4175 34.4162 31.5825 34.2512 31.7862 34.2512C31.99 34.2512 32.155 34.4162 32.1575 34.6225C32.1556 34.72 32.1157 34.8129 32.0464 34.8815C31.9771 34.9501 31.8838 34.989 31.7862 34.99L31.785 34.9925ZM34.01 25.6237L35.195 24.4362L34.7975 26.4112L34.01 25.6237ZM15.9437 14.3275L17.2375 15.625L15.625 17.2375L14.0087 15.625L15.3675 14.265L15.9437 14.3275ZM21.5662 14.95L22.2387 15.625L20.6262 17.2375L19.01 15.625L19.87 14.7625L21.5662 14.95ZM12.0375 17.595L13.125 16.51L14.7375 18.125L13.125 19.7375L12.4187 19.0337L12.0387 17.5937L12.0375 17.595ZM11.6687 16.195L11.2587 14.645L12.24 15.6262L11.6687 16.195ZM27.2375 20.625L25.625 22.2375L24.0087 20.625L25.6237 19.0087L27.2375 20.625ZM26.5087 18.125L28.1237 16.51L29.7362 18.125L28.1237 19.74L26.5087 18.125ZM23.125 19.7375L21.5087 18.125L23.1237 16.5087L24.7362 18.1237L23.125 19.7375ZM22.2375 20.625L20.625 22.2375L19.01 20.625L20.625 19.0087L22.2375 20.625ZM18.125 19.7375L16.5087 18.125L18.1237 16.5087L19.7362 18.1237L18.125 19.7375ZM17.2375 20.625L15.625 22.2375L14.0087 20.625L15.6237 19.0087L17.2375 20.625ZM13.125 21.5087L14.7375 23.1237L13.7575 24.1025L13.0825 21.5475L13.1237 21.5062L13.125 21.5087ZM14.1275 25.505L15.6237 24.0087L17.2362 25.6237L15.6237 27.2362L14.2112 25.8237L14.1275 25.505ZM16.51 23.1237L18.1225 21.5075L19.7387 23.1225L18.1262 24.735L16.5112 23.1225L16.51 23.1237ZM20.625 24.0075L22.24 25.6225L20.625 27.235L19.01 25.6225L20.625 24.0075ZM21.51 23.1225L23.125 21.5062L24.7375 23.1212L23.125 24.7337L21.51 23.1225ZM25.6225 24.0062L27.2387 25.6212L25.6262 27.2337L24.0112 25.6187L25.6225 24.0062ZM26.51 23.1212L28.1225 21.505L29.7387 23.12L28.1262 24.7325L26.51 23.1212ZM29.01 20.6212L30.6225 19.005L32.2387 20.62L30.6262 22.2325L29.01 20.6212ZM31.51 18.1212L33.1225 16.505L34.7375 18.125L33.125 19.74L31.5087 18.1237L31.51 18.1212ZM30.6225 17.2362L29.1787 15.7912L31.7812 16.0787L30.6225 17.2362ZM27.24 15.625L25.6275 17.24L24.0112 15.625L24.3737 15.2625L27.19 15.575L27.24 15.625ZM18.1275 14.7375L17.9375 14.55L18.2787 14.5875L18.1287 14.7375H18.1275ZM13.1275 14.74L12.315 13.9275L13.7775 14.09L13.1275 14.74ZM18.1275 26.5087L19.6337 28.015H16.6212L18.1275 26.5087ZM23.1275 26.5087L24.6337 28.0162H21.6187L23.1275 26.5087ZM28.1275 26.5087L29.6362 28.0175H26.6187L28.1275 26.5087ZM29.0112 25.6237L30.6262 24.0075L32.2387 25.6225L30.6262 27.235L29.0112 25.6237ZM31.5112 23.1237L33.1262 21.5087L34.7387 23.1212L33.1262 24.7375L31.51 23.125L31.5112 23.1237ZM35.6262 22.2362L34.0112 20.6237L35.6237 19.0087L36.18 19.5637L35.6425 22.2187L35.625 22.2375L35.6262 22.2362ZM36.2512 16.6112L35.6262 17.2362L34.8012 16.415L36.0725 16.555C36.14 16.565 36.1975 16.5875 36.2525 16.61L36.2512 16.6112ZM16.86 34.9912C16.7654 34.9857 16.6765 34.9443 16.6115 34.8754C16.5465 34.8065 16.5103 34.7154 16.5103 34.6206C16.5103 34.5259 16.5465 34.4347 16.6115 34.3658C16.6765 34.2969 16.7654 34.2555 16.86 34.25C16.9542 34.2555 17.0428 34.2968 17.1076 34.3654C17.1724 34.4341 17.2085 34.525 17.2085 34.6194C17.2085 34.7138 17.1724 34.8046 17.1076 34.8733C17.0428 34.9419 16.9542 34.9833 16.86 34.9887V34.9912ZM33.5137 28.0162H31.6175L33.1262 26.5075L34.2887 27.67C34.055 27.8825 33.76 28.0325 33.5137 28.0162Z" fill="black"/>
</svg>
