<svg width="40" height="40" viewBox="0 0 40 40" fill="none" xmlns="http://www.w3.org/2000/svg">
<path d="M14.811 35.5555C16.1917 35.5555 17.311 34.4363 17.311 33.0555C17.311 31.6748 16.1917 30.5555 14.811 30.5555C13.4303 30.5555 12.311 31.6748 12.311 33.0555C12.311 34.4363 13.4303 35.5555 14.811 35.5555Z" fill="black"/>
<path d="M30 35.5555C31.3807 35.5555 32.5 34.4363 32.5 33.0555C32.5 31.6748 31.3807 30.5555 30 30.5555C28.6193 30.5555 27.5 31.6748 27.5 33.0555C27.5 34.4363 28.6193 35.5555 30 35.5555Z" fill="black"/>
<path d="M36.7555 5.96672C36.6521 5.83926 36.5218 5.73629 36.3739 5.66521C36.2259 5.59412 36.0641 5.55669 35.9 5.55561H12.7666L13.4888 7.77783H34.4444L31.4777 21.1112H14.8111L9.73329 5.03339C9.67837 4.86279 9.58299 4.708 9.4553 4.58224C9.3276 4.45648 9.17138 4.36348 8.99996 4.31116L4.4444 2.91116C4.30433 2.86812 4.15714 2.85309 4.01126 2.86692C3.86537 2.88076 3.72364 2.9232 3.59415 2.99181C3.33264 3.13038 3.13689 3.36716 3.04996 3.65005C2.96303 3.93295 2.99204 4.2388 3.13061 4.5003C3.26917 4.76181 3.50595 4.95757 3.78885 5.0445L7.77774 6.26672L12.8777 22.3778L11.0555 23.8667L10.9111 24.0112C10.4603 24.5306 10.2048 25.191 10.1886 25.8785C10.1724 26.566 10.3964 27.2377 10.8222 27.7778C11.125 28.1461 11.5099 28.4384 11.9459 28.6314C12.3819 28.8243 12.8571 28.9125 13.3333 28.8889H31.8777C32.1724 28.8889 32.455 28.7719 32.6634 28.5635C32.8718 28.3551 32.9889 28.0725 32.9889 27.7778C32.9889 27.4831 32.8718 27.2005 32.6634 26.9922C32.455 26.7838 32.1724 26.6667 31.8777 26.6667H13.1555C13.0276 26.6623 12.9029 26.6251 12.7936 26.5584C12.6843 26.4918 12.594 26.3981 12.5314 26.2864C12.4688 26.1747 12.4362 26.0488 12.4365 25.9208C12.4368 25.7928 12.4702 25.667 12.5333 25.5556L15.2111 23.3334H32.3666C32.6235 23.3397 32.8746 23.2567 33.0771 23.0987C33.2797 22.9407 33.4213 22.7174 33.4777 22.4667L37 6.91116C37.0338 6.74552 37.0293 6.57434 36.9869 6.41068C36.9446 6.24701 36.8654 6.09517 36.7555 5.96672Z" fill="black"/>
</svg>
