<svg width="51" height="50" viewBox="0 0 51 50" fill="none" xmlns="http://www.w3.org/2000/svg">
<path d="M25.5 0.5V6.83301H6.83301V43.167H25.5V49.5H6.33301C4.733 49.4999 3.35141 48.9246 2.21484 47.7881C1.0782 46.6514 0.501939 45.2686 0.5 43.667V6.33301C0.500078 4.73267 1.07639 3.35039 2.21484 2.21387C3.35286 1.07787 4.73473 0.50194 6.33301 0.5H25.5ZM49.707 25L35.6572 39.0498L35.3037 38.6777L31.6367 34.8105L31.3018 34.457L31.6465 34.1133L37.5928 28.167H16.5V21.833H37.5928L31.6465 15.8867L31.3018 15.543L31.6367 15.1895L35.3037 11.3223L35.6572 10.9502L49.707 25Z" fill="white" stroke="black"/>
</svg>
