<svg width="24" height="28" viewBox="0 0 24 28" fill="none" xmlns="http://www.w3.org/2000/svg">
<path d="M7.38462 10.1538C7.62944 10.1538 7.86423 10.2511 8.03734 10.4242C8.21045 10.5973 8.3077 10.8321 8.3077 11.0769V22.1538C8.3077 22.3986 8.21045 22.6334 8.03734 22.8065C7.86423 22.9796 7.62944 23.0769 7.38462 23.0769C7.13981 23.0769 6.90502 22.9796 6.73191 22.8065C6.5588 22.6334 6.46155 22.3986 6.46155 22.1538V11.0769C6.46155 10.8321 6.5588 10.5973 6.73191 10.4242C6.90502 10.2511 7.13981 10.1538 7.38462 10.1538ZM12 10.1538C12.2448 10.1538 12.4796 10.2511 12.6527 10.4242C12.8258 10.5973 12.9231 10.8321 12.9231 11.0769V22.1538C12.9231 22.3986 12.8258 22.6334 12.6527 22.8065C12.4796 22.9796 12.2448 23.0769 12 23.0769C11.7552 23.0769 11.5204 22.9796 11.3473 22.8065C11.1742 22.6334 11.0769 22.3986 11.0769 22.1538V11.0769C11.0769 10.8321 11.1742 10.5973 11.3473 10.4242C11.5204 10.2511 11.7552 10.1538 12 10.1538ZM17.5385 11.0769C17.5385 10.8321 17.4412 10.5973 17.2681 10.4242C17.095 10.2511 16.8602 10.1538 16.6154 10.1538C16.3706 10.1538 16.1358 10.2511 15.9627 10.4242C15.7896 10.5973 15.6923 10.8321 15.6923 11.0769V22.1538C15.6923 22.3986 15.7896 22.6334 15.9627 22.8065C16.1358 22.9796 16.3706 23.0769 16.6154 23.0769C16.8602 23.0769 17.095 22.9796 17.2681 22.8065C17.4412 22.6334 17.5385 22.3986 17.5385 22.1538V11.0769Z" fill="black"/>
<path d="M24 5.53846C24 6.02809 23.8055 6.49767 23.4593 6.84389C23.1131 7.19011 22.6435 7.38462 22.1538 7.38462H21.2308V24C21.2308 24.9793 20.8418 25.9184 20.1493 26.6109C19.4569 27.3033 18.5177 27.6923 17.5385 27.6923H6.46154C5.48228 27.6923 4.54312 27.3033 3.85068 26.6109C3.15824 25.9184 2.76923 24.9793 2.76923 24V7.38462H1.84615C1.35652 7.38462 0.886947 7.19011 0.540726 6.84389C0.194505 6.49767 0 6.02809 0 5.53846V3.69231C0 3.20268 0.194505 2.7331 0.540726 2.38688C0.886947 2.04066 1.35652 1.84615 1.84615 1.84615H8.30769C8.30769 1.35652 8.5022 0.886947 8.84842 0.540726C9.19464 0.194505 9.66422 0 10.1538 0L13.8462 0C14.3358 0 14.8054 0.194505 15.1516 0.540726C15.4978 0.886947 15.6923 1.35652 15.6923 1.84615H22.1538C22.6435 1.84615 23.1131 2.04066 23.4593 2.38688C23.8055 2.7331 24 3.20268 24 3.69231V5.53846ZM4.83323 7.38462L4.61538 7.49354V24C4.61538 24.4896 4.80989 24.9592 5.15611 25.3054C5.50233 25.6516 5.97191 25.8462 6.46154 25.8462H17.5385C18.0281 25.8462 18.4977 25.6516 18.8439 25.3054C19.1901 24.9592 19.3846 24.4896 19.3846 24V7.49354L19.1668 7.38462H4.83323ZM1.84615 5.53846H22.1538V3.69231H1.84615V5.53846Z" fill="black"/>
</svg>
